<?xml version="1.0" standalone="no"?>
<!DOCTYPE svg PUBLIC "-//W3C//DTD SVG 20010904//EN"
 "http://www.w3.org/TR/2001/REC-SVG-20010904/DTD/svg10.dtd">
<svg version="1.0" xmlns="http://www.w3.org/2000/svg"
 width="1000.000000pt" height="1000.000000pt" viewBox="0 0 1000.000000 1000.000000"
 preserveAspectRatio="xMidYMid meet">

<g transform="translate(0.000000,1000.000000) scale(0.100000,-0.100000)"
fill="#000000" stroke="none">
<path d="M0 5000 l0 -5000 5000 0 5000 0 0 5000 0 5000 -5000 0 -5000 0 0
-5000z m6488 3661 c11 -6 7 -33 -17 -137 -17 -71 -49 -210 -71 -309 -73 -326
-101 -448 -135 -595 -69 -296 -97 -416 -110 -480 -8 -36 -35 -155 -60 -265
-26 -110 -57 -247 -69 -305 -13 -58 -35 -157 -50 -220 -14 -63 -29 -125 -31
-137 -10 -42 44 -27 266 73 118 53 284 127 369 164 85 38 292 130 460 205 168
75 361 161 430 192 69 30 193 85 275 123 83 37 184 82 225 100 138 60 275 121
302 136 14 8 30 14 35 14 12 0 29 -75 98 -435 31 -159 62 -319 70 -355 8 -36
39 -193 70 -350 30 -157 66 -341 80 -410 22 -109 84 -425 116 -590 6 -30 12
-62 15 -71 5 -18 -27 -26 -326 -89 -139 -29 -281 -59 -640 -136 -91 -19 -237
-50 -325 -69 -88 -19 -236 -50 -330 -70 -236 -50 -418 -89 -565 -120 -264 -55
-310 -67 -303 -79 4 -6 131 -161 282 -345 152 -184 299 -362 326 -396 28 -34
100 -122 160 -195 132 -159 363 -439 410 -496 18 -23 88 -107 155 -188 87
-105 119 -151 111 -159 -5 -7 -100 -75 -211 -152 -111 -77 -234 -163 -273
-191 -372 -262 -1467 -1024 -1476 -1026 -11 -3 -18 11 -356 732 -117 250 -234
500 -260 555 -26 55 -73 154 -104 220 -31 66 -102 216 -156 333 l-100 213 -25
-32 c-24 -30 -213 -296 -603 -849 -96 -135 -252 -355 -347 -490 -96 -135 -237
-334 -314 -443 -77 -110 -145 -201 -152 -204 -7 -3 -186 145 -397 329 -211
183 -576 499 -811 703 l-428 369 69 66 c38 36 228 211 423 389 195 178 382
349 415 380 33 31 260 238 503 461 377 345 442 408 442 432 0 24 -5 28 -37 34
-21 3 -90 17 -153 30 -63 14 -259 53 -435 89 -176 35 -486 98 -690 140 -203
41 -511 103 -682 137 -172 35 -315 68 -317 74 -2 6 20 66 49 135 28 68 85 203
125 299 39 96 101 245 137 330 62 148 96 228 169 405 18 44 64 154 102 245 38
91 106 255 152 365 114 276 192 459 200 468 4 4 160 -67 346 -159 453 -223
857 -421 1337 -658 220 -108 403 -196 408 -196 5 0 9 33 9 73 0 73 11 509 30
1152 6 193 15 548 20 789 7 334 13 442 22 448 17 10 2129 10 2146 -1z"/>
</g>
</svg>
